<svg width="20" height="20" viewBox="0 0 20 20" fill="none" xmlns="http://www.w3.org/2000/svg">
<path d="M4.85417 16.125C4.25694 15.5277 3.79861 14.8421 3.47917 14.0679C3.15972 13.2937 3 12.4933 3 11.6666C3 10.7222 3.15972 9.82983 3.47917 8.98955C3.79861 8.14928 4.26389 7.40969 4.875 6.7708C5.36111 6.25691 5.90625 5.83678 6.51042 5.51039C7.11458 5.184 7.84028 4.93747 8.6875 4.7708C9.53472 4.60414 10.5382 4.51039 11.6979 4.48955C12.8576 4.46872 14.2292 4.51386 15.8125 4.62497C15.9514 6.41664 16.0278 7.92358 16.0417 9.1458C16.0556 10.368 15.9965 11.4027 15.8646 12.25C15.7326 13.0972 15.5174 13.809 15.2188 14.3854C14.9201 14.9618 14.5208 15.5 14.0208 16C13.3819 16.6527 12.6722 17.1493 11.8915 17.4896C11.1106 17.8298 10.3135 18 9.5 18C8.61111 18 7.76736 17.8402 6.96875 17.5208C6.17014 17.2014 5.46528 16.7361 4.85417 16.125ZM7 15.875C7.38889 16.0833 7.79167 16.243 8.20833 16.3541C8.625 16.4652 9.05556 16.5139 9.5 16.5C10.125 16.4861 10.7222 16.3507 11.2917 16.0937C11.8611 15.8368 12.4167 15.4514 12.9583 14.9375C13.3194 14.5902 13.6181 14.1666 13.8542 13.6666C14.0903 13.1666 14.2674 12.5555 14.3854 11.8333C14.5035 11.1111 14.566 10.2743 14.5729 9.32289C14.5799 8.3715 14.5347 7.27775 14.4375 6.04164C13.3819 5.9583 12.4132 5.93053 11.5312 5.9583C10.6493 5.98608 9.85417 6.07289 9.14583 6.21872C8.4375 6.36455 7.81944 6.56941 7.29167 6.8333C6.76389 7.09719 6.32639 7.41664 5.97917 7.79164C5.50694 8.30553 5.14236 8.88191 4.88542 9.5208C4.62847 10.1597 4.5 10.8055 4.5 11.4583C4.5 12.0972 4.60417 12.7014 4.8125 13.2708C5.02083 13.8402 5.32639 14.368 5.72917 14.8541C6.27083 13.7152 6.98958 12.6944 7.88542 11.7916C8.78125 10.8889 9.81944 10.125 11 9.49997C9.91667 10.4583 9.05903 11.4548 8.42708 12.4896C7.79514 13.5243 7.31944 14.6527 7 15.875Z" fill="#78A75A"/>
</svg>
